<svg width="162" height="29" viewBox="0 0 162 29" fill="none" xmlns="http://www.w3.org/2000/svg">
<path d="M7.47707 6.19027L7.52047 3.00002L15.175 10.6546L13.3458 12.4838L7.47707 6.19027Z" fill="#0029FF"/>
<path d="M17.2696 6.19025L17.2262 3L9.5716 10.6546L11.4008 12.4838L17.2696 6.19025Z" fill="#0029FF"/>
<path d="M11.6595 13.9884L11.6595 11.2165L17.696 4.29346L17.696 7.46546L11.6595 13.9884Z" fill="black"/>
<path d="M13.0395 13.9884L13.0395 11.2165L7.00306 4.29346L7.00306 7.46546L13.0395 13.9884Z" fill="black"/>
<path d="M13.7107 13.089L16.2976 13.089L16.2976 23.6954L14.0546 21.5568L13.7107 13.089Z" fill="#0029FF"/>
<path d="M20.9568 14.7992L23.2433 17.0857L12.1195 17.0857L12.1195 14.4988L20.9568 14.7992Z" fill="#0029FF"/>
<path d="M12.5466 12.2425L14.5066 14.2025L15.1335 23.3663L12.8905 21.1233L12.5466 12.2425Z" fill="black"/>
<path d="M11.5708 13.2183L13.5308 15.1784L22.6945 15.8053L20.4516 13.5623L11.5708 13.2183Z" fill="black"/>
<path d="M10.8651 13.089L8.27813 13.089L8.27813 23.6953L10.5211 21.5567L10.8651 13.089Z" fill="#0029FF"/>
<path d="M3.57998 14.7992L1.29345 17.0857L12.4172 17.0857L12.4172 14.4988L3.57998 14.7992Z" fill="#0029FF"/>
<path d="M11.9902 12.2425L10.0301 14.2025L9.40324 23.3663L11.6462 21.1233L11.9902 12.2425Z" fill="black"/>
<path d="M12.966 13.2183L11.006 15.1784L1.84222 15.8053L4.08516 13.5623L12.966 13.2183Z" fill="black"/>
<path d="M37.9858 10.5653C37.9176 9.87784 37.625 9.34375 37.108 8.96307C36.5909 8.58239 35.8892 8.39204 35.0028 8.39204C34.4006 8.39204 33.892 8.47727 33.4773 8.64773C33.0625 8.8125 32.7443 9.04261 32.5227 9.33807C32.3068 9.63352 32.1989 9.96875 32.1989 10.3438C32.1875 10.6562 32.2528 10.929 32.3949 11.1619C32.5426 11.3949 32.7443 11.5966 33 11.767C33.2557 11.9318 33.5511 12.0767 33.8864 12.2017C34.2216 12.321 34.5795 12.4233 34.9602 12.5085L36.5284 12.8835C37.2898 13.054 37.9886 13.2812 38.625 13.5653C39.2614 13.8494 39.8125 14.1989 40.2784 14.6136C40.7443 15.0284 41.1051 15.517 41.3608 16.0795C41.6222 16.642 41.7557 17.2869 41.7614 18.0142C41.7557 19.0824 41.483 20.0085 40.9432 20.7926C40.4091 21.571 39.6364 22.1761 38.625 22.608C37.6193 23.0341 36.4063 23.2472 34.9858 23.2472C33.5767 23.2472 32.3494 23.0312 31.304 22.5994C30.2642 22.1676 29.4517 21.5284 28.8665 20.6818C28.2869 19.8295 27.983 18.7756 27.9545 17.5199H31.5256C31.5653 18.1051 31.733 18.5937 32.0284 18.9858C32.3295 19.3722 32.7301 19.6648 33.2301 19.8636C33.7358 20.0568 34.3068 20.1534 34.9432 20.1534C35.5682 20.1534 36.1108 20.0625 36.571 19.8807C37.0369 19.6989 37.3977 19.446 37.6534 19.1222C37.9091 18.7983 38.0369 18.4261 38.0369 18.0057C38.0369 17.6136 37.9205 17.2841 37.6875 17.017C37.4602 16.75 37.125 16.5227 36.6818 16.3352C36.2443 16.1477 35.7074 15.9773 35.071 15.8239L33.1705 15.3466C31.6989 14.9886 30.5369 14.429 29.6847 13.6676C28.8324 12.9062 28.4091 11.8807 28.4148 10.5909C28.4091 9.53409 28.6903 8.6108 29.2585 7.82102C29.8324 7.03125 30.6193 6.41477 31.6193 5.97159C32.6193 5.52841 33.7557 5.30682 35.0284 5.30682C36.3239 5.30682 37.4545 5.52841 38.4205 5.97159C39.392 6.41477 40.1477 7.03125 40.6875 7.82102C41.2273 8.6108 41.5057 9.52557 41.5227 10.5653H37.9858ZM47.4652 19.233L47.4737 14.8778H48.0021L52.1953 9.90909H56.3629L50.7294 16.4886H49.8686L47.4652 19.233ZM44.1754 23V5.54545H47.8061V23H44.1754ZM52.3572 23L48.505 17.2983L50.9254 14.733L56.6101 23H52.3572ZM58.1442 23V9.90909H61.7749V23H58.1442ZM59.968 8.22159C59.4283 8.22159 58.9652 8.04261 58.5788 7.68466C58.1982 7.32102 58.0078 6.88636 58.0078 6.38068C58.0078 5.88068 58.1982 5.4517 58.5788 5.09375C58.9652 4.73011 59.4283 4.54829 59.968 4.54829C60.5078 4.54829 60.968 4.73011 61.3487 5.09375C61.7351 5.4517 61.9283 5.88068 61.9283 6.38068C61.9283 6.88636 61.7351 7.32102 61.3487 7.68466C60.968 8.04261 60.5078 8.22159 59.968 8.22159ZM68.3139 5.54545V23H64.6832V5.54545H68.3139ZM74.853 5.54545V23H71.2223V5.54545H74.853ZM77.8295 5.54545H82.3807L87.1875 17.2727H87.392L92.1989 5.54545H96.75V23H93.1705V11.6392H93.0256L88.5085 22.9148H86.071L81.554 11.5966H81.4091V23H77.8295V5.54545ZM105.688 23.2557C104.342 23.2557 103.183 22.983 102.211 22.4375C101.245 21.8864 100.501 21.108 99.978 20.1023C99.4553 19.0909 99.1939 17.8949 99.1939 16.5142C99.1939 15.1676 99.4553 13.9858 99.978 12.9688C100.501 11.9517 101.237 11.1591 102.185 10.5909C103.14 10.0227 104.259 9.73864 105.543 9.73864C106.407 9.73864 107.211 9.87784 107.955 10.1562C108.705 10.429 109.359 10.8409 109.915 11.392C110.478 11.9432 110.915 12.6364 111.228 13.4716C111.54 14.3011 111.697 15.2727 111.697 16.3864V17.3835H100.643V15.1335H108.279C108.279 14.6108 108.165 14.1477 107.938 13.7443C107.711 13.3409 107.396 13.0256 106.992 12.7983C106.594 12.5653 106.131 12.4489 105.603 12.4489C105.052 12.4489 104.563 12.5767 104.137 12.8324C103.717 13.0824 103.387 13.4205 103.148 13.8466C102.91 14.267 102.788 14.7358 102.782 15.2528V17.392C102.782 18.0398 102.901 18.5994 103.14 19.071C103.384 19.5426 103.728 19.9062 104.171 20.1619C104.614 20.4176 105.14 20.5455 105.748 20.5455C106.151 20.5455 106.521 20.4886 106.856 20.375C107.191 20.2614 107.478 20.0909 107.717 19.8636C107.955 19.6364 108.137 19.358 108.262 19.0284L111.62 19.25C111.45 20.0568 111.1 20.7614 110.572 21.3636C110.049 21.9602 109.373 22.4261 108.543 22.7614C107.719 23.0909 106.768 23.2557 105.688 23.2557ZM117.697 15.4318V23H114.066V9.90909H117.526V12.2188H117.68C117.969 11.4574 118.455 10.8551 119.137 10.4119C119.819 9.96307 120.646 9.73864 121.617 9.73864C122.526 9.73864 123.319 9.9375 123.995 10.3352C124.671 10.733 125.197 11.3011 125.572 12.0398C125.947 12.7727 126.134 13.6477 126.134 14.6648V23H122.504V15.3125C122.509 14.5114 122.305 13.8864 121.89 13.4375C121.475 12.983 120.904 12.7557 120.177 12.7557C119.688 12.7557 119.256 12.8608 118.881 13.071C118.512 13.2812 118.222 13.5881 118.012 13.9915C117.808 14.3892 117.702 14.8693 117.697 15.4318ZM135.959 9.90909V12.6364H128.075V9.90909H135.959ZM129.865 6.77273H133.496V18.9773C133.496 19.3125 133.547 19.5739 133.649 19.7614C133.751 19.9432 133.893 20.071 134.075 20.1449C134.263 20.2187 134.479 20.2557 134.723 20.2557C134.893 20.2557 135.064 20.2415 135.234 20.2131C135.405 20.179 135.536 20.1534 135.626 20.1364L136.197 22.8381C136.016 22.8949 135.76 22.9602 135.43 23.0341C135.101 23.1136 134.7 23.1619 134.229 23.179C133.354 23.2131 132.587 23.0966 131.928 22.8295C131.274 22.5625 130.766 22.1477 130.402 21.5852C130.038 21.0227 129.859 20.3125 129.865 19.4545V6.77273ZM144.098 23.2557C142.774 23.2557 141.629 22.9744 140.663 22.4119C139.703 21.8437 138.962 21.054 138.439 20.0426C137.916 19.0256 137.655 17.8466 137.655 16.5057C137.655 15.1534 137.916 13.9716 138.439 12.9602C138.962 11.9432 139.703 11.1534 140.663 10.5909C141.629 10.0227 142.774 9.73864 144.098 9.73864C145.422 9.73864 146.564 10.0227 147.524 10.5909C148.49 11.1534 149.234 11.9432 149.757 12.9602C150.28 13.9716 150.541 15.1534 150.541 16.5057C150.541 17.8466 150.28 19.0256 149.757 20.0426C149.234 21.054 148.49 21.8437 147.524 22.4119C146.564 22.9744 145.422 23.2557 144.098 23.2557ZM144.115 20.4432C144.717 20.4432 145.22 20.2727 145.624 19.9318C146.027 19.5852 146.331 19.1136 146.536 18.517C146.746 17.9205 146.851 17.2415 146.851 16.4801C146.851 15.7188 146.746 15.0398 146.536 14.4432C146.331 13.8466 146.027 13.375 145.624 13.0284C145.22 12.6818 144.717 12.5085 144.115 12.5085C143.507 12.5085 142.996 12.6818 142.581 13.0284C142.172 13.375 141.862 13.8466 141.652 14.4432C141.447 15.0398 141.345 15.7188 141.345 16.4801C141.345 17.2415 141.447 17.9205 141.652 18.517C141.862 19.1136 142.172 19.5852 142.581 19.9318C142.996 20.2727 143.507 20.4432 144.115 20.4432ZM152.902 23V9.90909H156.422V12.1932H156.558C156.797 11.3807 157.197 10.767 157.76 10.3523C158.322 9.93182 158.97 9.72159 159.703 9.72159C159.885 9.72159 160.081 9.73295 160.291 9.75568C160.501 9.77841 160.686 9.80966 160.845 9.84943V13.071C160.675 13.0199 160.439 12.9744 160.138 12.9347C159.837 12.8949 159.561 12.875 159.311 12.875C158.777 12.875 158.3 12.9915 157.879 13.2244C157.464 13.4517 157.135 13.7699 156.891 14.179C156.652 14.5881 156.533 15.0597 156.533 15.5938V23H152.902Z" fill="#17161D"/>
</svg>
